# xmcd
#
# Track frame offsets:
#	150
#	17485
#	30386
#	48361
#	65722
#	83658
#	104519
#	122174
#	143209
#	158516
#	178763
#	199308
#	213517
#	227995
#	244928
#	260552
#	273525
#
# Disc length: 3924
#
# Revision: 2
# Processed by: cddbd v1.5.1PL0 Copyright (c) Steve Scherf et al.
# Submitted via: CDex 1.40Beta4
# Normalized: r1:DSETVAR1,TDELIM( - )
#
DISCID=f60f5211
DTITLE=Various Artist - Listen To Our Country
DYEAR=2000
DGENRE=Country
TTITLE0=Dwight Yoakam - Love Caught Up To Me
TTITLE1=Hank Williams III - You're The Reason
TTITLE2=Bryan White - Rebecca Lynn
TTITLE3=The Wilkinsons - Shame On Me
TTITLE4=Tim McGraw - Some Things Never Change
TTITLE5=Anita Cochran - You With Me
TTITLE6=Neal McCoy - Every Man For Himself
TTITLE7=Jo Dee Messina - Burn
TTITLE8=Chad Brock - The Visit
TTITLE9=Clay Walker - Once In A Lifetime Love
TTITLE10=Steve Holy - Blue Moon
TTITLE11=Faith Hill - The Way You Love Me
TTITLE12=Craig Morgan - Ev'rything's A Thing
TTITLE13=Shane McAnally - Run Away
TTITLE14=Georgia Middleman - No Place Like Home
TTITLE15=SouthSixtyFive - Great Love Of 1998
TTITLE16=Chalee Tennison - Makin' Up With You
EXTD=YEAR: 2000 ID3G:   2
EXTT0=
EXTT1=
EXTT2=
EXTT3=
EXTT4=
EXTT5=
EXTT6=
EXTT7=
EXTT8=
EXTT9=
EXTT10=
EXTT11=
EXTT12=
EXTT13=
EXTT14=
EXTT15=
EXTT16=
PLAYORDER=
